<svg id="svg" version="1.1" xmlns="http://www.w3.org/2000/svg" xmlns:xlink="http://www.w3.org/1999/xlink" width="400" height="388.1656804733728" viewBox="0, 0, 400,388.1656804733728"><g id="svgg"><path id="path0" d="M217.476 60.969 C 216.515 61.152,214.713 61.315,213.473 61.330 C 210.799 61.365,207.687 62.070,207.290 62.731 C 207.101 63.046,206.308 63.144,204.905 63.026 C 203.627 62.918,202.702 63.013,202.544 63.269 C 202.401 63.500,201.596 63.689,200.754 63.689 C 199.912 63.689,199.223 63.864,199.223 64.078 C 199.223 64.291,198.472 64.466,197.553 64.466 C 196.635 64.466,195.717 64.627,195.515 64.824 C 195.312 65.022,194.621 65.240,193.981 65.310 C 193.340 65.380,192.846 65.615,192.883 65.833 C 192.922 66.066,192.323 66.169,191.426 66.083 C 190.485 65.993,189.903 66.102,189.903 66.367 C 189.903 66.603,189.379 66.796,188.738 66.796 C 188.097 66.796,187.573 66.971,187.573 67.184 C 187.573 67.398,187.134 67.573,186.597 67.573 C 186.060 67.573,185.273 67.748,184.849 67.961 C 184.425 68.175,183.731 68.524,183.306 68.738 C 182.269 69.260,177.350 69.234,176.819 68.703 C 176.570 68.453,175.344 68.334,173.832 68.412 C 172.004 68.506,171.214 68.401,171.079 68.045 C 170.741 67.161,146.408 67.848,145.456 68.769 C 145.253 68.966,144.346 69.126,143.440 69.126 C 142.535 69.126,141.685 69.301,141.553 69.515 C 141.421 69.728,140.722 69.903,140.000 69.903 C 139.278 69.903,138.579 70.078,138.447 70.291 C 138.315 70.505,137.616 70.680,136.893 70.680 C 136.171 70.680,135.472 70.854,135.340 71.068 C 135.208 71.282,134.596 71.456,133.981 71.456 C 133.365 71.456,132.753 71.631,132.621 71.845 C 132.489 72.058,131.965 72.233,131.456 72.233 C 130.948 72.233,130.423 72.408,130.291 72.621 C 130.159 72.835,129.710 73.010,129.292 73.010 C 128.875 73.010,128.230 73.184,127.859 73.398 C 127.488 73.611,126.748 73.960,126.214 74.174 C 125.680 74.387,124.981 74.724,124.660 74.922 C 124.340 75.121,122.499 75.892,120.569 76.636 C 112.749 79.651,102.642 84.629,103.347 85.117 C 103.734 85.384,103.650 85.422,103.046 85.254 C 101.937 84.943,98.792 86.700,98.949 87.542 C 99.012 87.880,98.881 88.155,98.658 88.155 C 98.435 88.155,98.252 87.966,98.252 87.735 C 98.252 87.503,98.034 87.394,97.767 87.492 C 97.500 87.590,97.319 87.849,97.365 88.067 C 97.411 88.285,97.134 88.382,96.749 88.281 C 96.364 88.180,95.403 88.460,94.614 88.903 C 93.826 89.346,92.923 89.709,92.610 89.709 C 92.296 89.709,92.039 89.883,92.039 90.097 C 92.039 90.311,91.804 90.485,91.516 90.485 C 90.588 90.485,88.579 91.674,88.694 92.155 C 88.755 92.411,88.731 92.490,88.642 92.330 C 88.423 91.938,87.519 91.962,86.694 92.382 C 86.323 92.571,85.495 92.940,84.854 93.204 C 84.214 93.467,83.386 93.837,83.015 94.026 C 82.644 94.215,82.074 94.369,81.748 94.369 C 81.421 94.369,80.851 94.538,80.480 94.744 C 79.086 95.519,72.676 97.476,71.533 97.476 C 70.878 97.476,69.914 97.638,69.391 97.837 C 68.868 98.036,66.803 98.316,64.802 98.460 L 61.165 98.721 60.647 97.419 C 60.362 96.703,59.991 95.767,59.822 95.340 C 59.414 94.305,57.867 90.851,57.433 90.005 C 57.243 89.634,57.087 89.066,57.087 88.743 C 57.087 88.420,56.913 88.155,56.699 88.155 C 56.485 88.155,56.311 87.816,56.311 87.402 C 56.311 86.987,56.136 86.540,55.922 86.408 C 55.709 86.276,55.534 85.858,55.534 85.480 C 55.534 84.742,54.036 81.585,53.217 80.599 C 52.204 79.378,49.680 80.070,42.694 83.484 C 40.933 84.344,39.257 85.049,38.969 85.049 C 38.682 85.049,38.447 85.223,38.447 85.437 C 38.447 85.650,38.193 85.825,37.882 85.825 C 36.673 85.825,35.287 86.745,35.466 87.430 C 35.617 88.010,35.535 88.042,34.897 87.647 C 34.344 87.304,34.079 87.299,33.872 87.625 C 33.718 87.867,33.243 88.136,32.816 88.222 C 32.338 88.318,32.083 88.634,32.153 89.043 C 32.216 89.409,32.074 89.709,31.839 89.709 C 31.603 89.709,31.518 89.534,31.650 89.320 C 31.782 89.107,31.541 88.932,31.114 88.932 C 30.687 88.932,30.229 89.107,30.097 89.320 C 29.965 89.534,29.518 89.709,29.103 89.709 C 28.689 89.709,28.350 89.883,28.350 90.097 C 28.350 90.311,28.085 90.485,27.762 90.485 C 27.438 90.485,26.827 90.660,26.402 90.874 C 25.978 91.087,25.284 91.437,24.860 91.650 C 24.435 91.864,23.824 92.039,23.500 92.039 C 23.177 92.039,22.913 92.295,22.913 92.609 C 22.913 92.966,22.686 93.093,22.308 92.948 C 21.976 92.820,20.971 93.072,20.075 93.506 C 19.180 93.941,18.130 94.399,17.742 94.524 C 17.355 94.649,17.149 94.931,17.284 95.149 C 17.419 95.368,17.719 95.429,17.951 95.286 C 18.200 95.132,18.261 95.206,18.100 95.466 C 17.898 95.794,17.645 95.792,17.114 95.461 C 16.375 94.999,14.739 95.567,13.069 96.865 C 12.199 97.541,12.062 99.706,12.791 101.242 C 13.075 101.840,13.480 102.767,13.690 103.301 C 13.899 103.835,14.226 104.575,14.414 104.946 C 14.603 105.317,14.757 105.885,14.757 106.208 C 14.757 106.532,14.932 106.796,15.146 106.796 C 15.359 106.796,15.534 107.061,15.534 107.384 C 15.534 107.707,15.736 108.363,15.983 108.840 C 16.925 110.663,17.087 111.075,17.087 111.645 C 17.087 111.969,17.262 112.233,17.476 112.233 C 17.689 112.233,17.864 112.566,17.864 112.973 C 17.864 113.672,18.282 114.647,20.252 118.544 C 22.209 122.415,22.822 123.422,24.567 125.631 C 25.579 126.913,26.407 128.101,26.408 128.272 C 26.408 128.813,33.798 135.922,34.361 135.922 C 34.458 135.922,36.144 136.995,38.108 138.307 C 41.703 140.707,47.943 143.289,50.171 143.297 C 50.746 143.299,51.324 143.476,51.456 143.689 C 51.588 143.903,52.986 144.078,54.563 144.078 C 56.140 144.078,57.538 144.252,57.670 144.466 C 57.979 144.966,68.840 144.985,69.340 144.486 C 69.543 144.283,70.932 144.065,72.427 144.000 C 73.961 143.934,75.117 143.714,75.080 143.495 C 75.042 143.264,75.806 143.162,76.963 143.244 C 78.053 143.321,79.099 143.193,79.339 142.953 C 79.574 142.717,80.288 142.524,80.924 142.524 C 81.560 142.524,82.617 142.353,83.273 142.143 C 90.293 139.898,93.193 138.923,94.175 138.476 C 94.816 138.184,95.777 137.772,96.311 137.559 C 96.845 137.346,98.854 136.539,100.777 135.765 C 102.699 134.991,104.490 134.360,104.757 134.363 C 105.024 134.366,105.243 134.194,105.243 133.981 C 105.243 133.767,105.487 133.592,105.786 133.592 C 106.085 133.592,107.326 133.068,108.544 132.427 C 109.762 131.786,111.090 131.262,111.496 131.262 C 111.901 131.262,112.233 131.087,112.233 130.874 C 112.233 130.660,112.583 130.485,113.010 130.485 C 113.437 130.485,113.786 130.311,113.786 130.097 C 113.786 129.883,114.188 129.709,114.680 129.709 C 115.171 129.709,115.765 129.516,116.001 129.281 C 116.312 128.969,116.465 129.436,116.564 130.997 C 116.645 132.284,116.544 133.114,116.311 133.075 C 115.773 132.985,115.576 144.469,116.106 144.999 C 116.325 145.218,116.505 146.227,116.505 147.239 C 116.505 148.252,116.680 149.188,116.893 149.320 C 117.107 149.452,117.282 149.989,117.282 150.514 C 117.282 151.432,117.405 151.787,118.386 153.684 C 118.633 154.162,118.835 154.817,118.835 155.140 C 118.835 155.464,118.967 155.728,119.129 155.728 C 119.290 155.728,119.670 156.289,119.974 156.974 C 121.465 160.344,131.415 168.544,134.012 168.544 C 134.397 168.544,134.807 168.698,134.924 168.887 C 135.041 169.076,135.619 169.331,136.209 169.452 C 136.799 169.574,138.155 169.884,139.223 170.141 C 141.610 170.715,150.106 170.737,153.010 170.176 C 157.099 169.385,158.587 168.982,160.777 168.068 C 161.311 167.845,162.097 167.538,162.524 167.385 C 165.954 166.159,178.034 159.036,177.673 158.452 C 177.594 158.324,177.865 158.194,178.274 158.163 C 178.684 158.133,179.589 157.573,180.286 156.920 C 180.983 156.266,181.690 155.731,181.858 155.730 C 182.222 155.728,184.854 153.143,184.854 152.787 C 184.854 152.650,184.583 152.642,184.252 152.770 C 183.885 152.910,183.748 152.840,183.903 152.590 C 184.042 152.365,184.417 152.280,184.736 152.403 C 185.095 152.540,186.066 151.920,187.278 150.779 C 192.600 145.769,196.234 141.918,197.722 139.714 C 198.625 138.376,199.507 137.223,199.682 137.152 C 199.857 137.081,200.000 136.839,200.000 136.615 C 200.000 136.391,200.373 135.884,200.829 135.488 C 201.513 134.895,201.573 134.666,201.170 134.181 C 200.877 133.828,200.843 133.592,201.085 133.592 C 201.307 133.592,201.580 133.811,201.693 134.078 C 201.928 134.637,202.148 134.376,203.746 131.650 C 206.084 127.661,206.264 127.241,206.062 126.251 C 205.949 125.696,205.951 125.462,206.068 125.731 C 206.364 126.413,206.990 125.934,206.990 125.026 C 206.990 124.611,207.121 124.270,207.282 124.269 C 207.671 124.265,208.544 122.349,208.544 121.499 C 208.544 121.127,208.735 120.704,208.969 120.559 C 209.203 120.415,209.322 119.799,209.233 119.192 C 209.133 118.509,209.267 118.013,209.584 117.891 C 210.177 117.664,210.291 115.340,209.709 115.340 C 209.495 115.340,209.320 115.136,209.320 114.887 C 209.320 114.638,209.435 114.549,209.576 114.689 C 209.716 114.830,210.066 114.750,210.353 114.512 C 210.992 113.982,211.041 111.391,210.424 110.774 C 210.084 110.433,210.085 110.191,210.431 109.774 C 210.682 109.472,210.778 108.940,210.645 108.593 C 210.511 108.244,210.595 107.961,210.832 107.961 C 211.069 107.961,211.262 107.786,211.262 107.573 C 211.262 107.359,211.054 107.228,210.800 107.282 C 210.545 107.335,210.266 107.050,210.179 106.648 C 210.033 105.976,210.092 105.984,210.909 106.745 C 212.027 107.787,214.280 107.876,214.648 106.893 C 215.151 105.554,216.047 105.280,219.903 105.285 C 222.936 105.289,223.689 105.401,223.689 105.849 C 223.689 106.537,223.238 106.566,222.545 105.922 C 222.122 105.530,222.081 105.541,222.333 105.982 C 222.563 106.385,222.502 106.439,222.099 106.189 C 221.187 105.623,215.983 105.726,216.205 106.305 C 216.330 106.629,217.226 106.796,218.839 106.796 L 221.284 106.796 221.419 108.706 C 221.499 109.837,221.395 110.589,221.165 110.551 C 220.951 110.515,220.721 111.097,220.652 111.845 C 220.583 112.592,220.365 113.370,220.166 113.573 C 219.968 113.776,219.806 114.421,219.806 115.006 C 219.806 115.592,219.631 116.179,219.417 116.311 C 219.204 116.443,219.029 116.967,219.029 117.476 C 219.029 117.984,218.854 118.509,218.641 118.641 C 218.118 118.964,218.147 120.277,218.684 120.609 C 218.922 120.756,219.269 120.635,219.455 120.341 C 219.707 119.944,219.795 120.031,219.800 120.680 C 219.803 121.160,219.631 121.553,219.417 121.553 C 219.204 121.553,219.029 121.903,219.029 122.330 C 219.029 122.757,218.844 123.107,218.618 123.107 C 218.392 123.107,218.321 123.293,218.462 123.520 C 218.816 124.093,217.523 125.431,216.860 125.176 C 216.548 125.057,216.219 125.274,216.085 125.688 C 215.958 126.084,215.345 127.437,214.723 128.695 C 214.101 129.953,213.592 131.308,213.592 131.705 C 213.592 132.102,213.417 132.427,213.204 132.427 C 212.990 132.427,212.816 132.692,212.816 133.015 C 212.816 133.592,212.070 135.152,211.612 135.534 C 211.411 135.701,209.481 139.353,204.119 149.709 C 203.456 150.990,202.782 152.097,202.621 152.168 C 202.461 152.239,202.330 152.633,202.330 153.042 C 202.330 153.451,202.199 153.788,202.039 153.789 C 201.690 153.793,200.777 155.674,200.777 156.388 C 200.777 156.666,200.602 156.893,200.388 156.893 C 200.175 156.893,199.993 157.112,199.984 157.379 C 199.976 157.646,199.451 158.469,198.819 159.209 C 198.187 159.948,197.670 160.703,197.670 160.886 C 197.670 161.069,197.146 161.981,196.505 162.913 C 195.864 163.844,195.340 164.718,195.340 164.854 C 195.340 164.991,194.816 165.865,194.175 166.796 C 193.534 167.727,193.010 168.606,193.010 168.748 C 193.010 168.890,192.632 169.536,192.171 170.184 C 191.443 171.207,191.400 171.471,191.845 172.186 C 192.304 172.923,192.293 172.956,191.740 172.499 C 191.219 172.069,191.060 172.099,190.727 172.693 C 190.510 173.081,189.969 174.010,189.525 174.757 C 189.080 175.505,188.614 176.422,188.488 176.796 C 188.362 177.170,188.105 177.476,187.916 177.476 C 187.727 177.476,187.573 177.705,187.573 177.985 C 187.573 178.265,187.049 178.882,186.408 179.356 C 185.767 179.830,185.243 180.381,185.243 180.581 C 185.243 181.173,177.118 193.225,173.716 197.680 C 172.823 198.849,170.726 201.230,169.056 202.970 C 165.118 207.074,164.590 207.728,164.863 208.169 C 164.987 208.370,164.861 208.447,164.582 208.340 C 164.303 208.233,163.726 208.618,163.300 209.194 C 162.873 209.771,161.956 210.816,161.262 211.516 C 160.568 212.217,160.000 212.970,160.000 213.191 C 160.000 213.412,159.719 213.592,159.376 213.592 C 158.971 213.592,158.833 213.804,158.983 214.195 C 159.110 214.526,159.061 214.703,158.874 214.587 C 158.686 214.471,158.042 215.030,157.442 215.829 C 156.842 216.628,156.069 217.544,155.724 217.864 C 155.379 218.184,154.508 219.320,153.788 220.388 C 153.068 221.456,152.310 222.444,152.105 222.582 C 151.900 222.721,151.842 223.123,151.978 223.476 C 152.113 223.829,152.075 224.026,151.892 223.913 C 151.500 223.671,147.184 230.027,147.184 230.847 C 147.184 231.157,147.010 231.518,146.796 231.650 C 146.583 231.782,146.408 232.307,146.408 232.816 C 146.408 233.324,146.233 233.849,146.019 233.981 C 145.806 234.113,145.631 235.161,145.631 236.311 C 145.631 237.460,145.456 238.509,145.243 238.641 C 145.001 238.790,144.854 242.381,144.854 248.125 L 144.854 257.370 145.848 258.364 C 146.925 259.441,149.008 259.755,156.177 259.922 C 158.025 259.965,159.456 260.131,159.357 260.291 C 159.258 260.451,159.231 260.600,159.297 260.621 C 159.807 260.787,168.086 261.428,171.921 261.599 L 176.657 261.810 178.795 260.322 C 180.423 259.190,180.892 258.650,180.761 258.058 C 180.667 257.631,180.690 257.500,180.813 257.767 C 181.336 258.907,181.752 258.573,189.405 250.874 C 192.271 247.990,195.856 243.971,197.372 241.942 C 198.887 239.913,200.642 237.700,201.272 237.024 C 201.902 236.348,202.301 235.607,202.159 235.378 C 202.000 235.120,202.132 235.049,202.504 235.192 C 202.836 235.319,203.107 235.273,203.107 235.090 C 203.108 234.907,203.501 234.291,203.981 233.722 C 204.461 233.153,205.160 232.320,205.534 231.873 C 205.908 231.425,206.214 230.894,206.214 230.692 C 206.214 230.199,213.175 223.250,216.321 220.603 C 220.670 216.943,224.492 212.946,224.248 212.312 C 224.018 211.712,225.588 209.924,225.991 210.329 C 226.113 210.452,225.820 210.871,225.340 211.261 C 224.859 211.650,224.466 212.072,224.466 212.198 C 224.466 212.723,225.141 212.344,226.652 210.971 C 227.533 210.170,229.186 208.673,230.324 207.645 C 232.002 206.130,232.287 205.703,231.828 205.387 C 231.386 205.083,231.432 205.045,232.040 205.213 C 232.633 205.377,233.446 204.783,235.456 202.714 C 236.907 201.221,238.235 200.000,238.407 200.000 C 238.579 200.000,239.268 199.476,239.939 198.835 C 240.609 198.194,241.264 197.670,241.394 197.670 C 241.524 197.670,242.093 197.189,242.660 196.602 C 243.226 196.015,244.738 194.667,246.019 193.608 C 249.023 191.124,250.610 189.510,250.327 189.227 C 250.203 189.103,249.708 189.335,249.226 189.743 L 248.350 190.485 249.102 189.598 C 249.515 189.110,250.104 188.807,250.411 188.924 C 250.839 189.088,255.203 185.993,256.699 184.463 C 256.806 184.354,257.546 183.830,258.343 183.298 C 259.437 182.568,259.741 182.139,259.580 181.553 C 259.424 180.984,259.465 180.919,259.734 181.308 C 260.029 181.732,260.574 181.519,262.457 180.240 C 263.752 179.360,264.969 178.641,265.161 178.641 C 265.353 178.641,265.827 178.291,266.214 177.864 C 266.600 177.437,267.130 177.087,267.391 177.087 C 267.653 177.087,268.131 176.694,268.454 176.214 C 268.777 175.733,269.177 175.471,269.343 175.631 C 269.509 175.791,269.132 176.578,268.507 177.379 C 267.881 178.180,267.123 179.316,266.823 179.903 C 266.522 180.490,266.131 180.971,265.954 180.971 C 265.776 180.971,265.631 181.233,265.631 181.553 C 265.631 181.874,265.500 182.137,265.340 182.139 C 264.886 182.144,264.070 184.140,264.343 184.581 C 264.482 184.806,264.393 184.855,264.135 184.696 C 263.874 184.534,263.574 184.713,263.424 185.121 C 263.281 185.508,263.004 185.933,262.808 186.064 C 262.603 186.202,262.658 186.633,262.939 187.082 C 263.353 187.745,263.300 187.995,262.586 188.761 C 262.125 189.256,261.748 189.857,261.748 190.097 C 261.748 190.337,261.245 190.905,260.630 191.360 L 259.513 192.186 259.951 191.242 C 260.191 190.722,260.519 190.296,260.680 190.294 C 260.840 190.293,260.971 190.071,260.971 189.801 C 260.971 189.531,261.408 188.982,261.942 188.581 C 262.476 188.180,262.913 187.696,262.913 187.505 C 262.913 186.784,261.334 188.043,260.018 189.813 C 259.267 190.824,258.519 191.825,258.355 192.039 C 257.245 193.491,254.986 197.235,253.435 200.194 C 252.988 201.049,252.458 201.865,252.258 202.009 C 252.043 202.164,252.097 202.515,252.392 202.870 C 252.665 203.199,252.799 203.693,252.689 203.968 C 252.559 204.290,252.478 204.234,252.458 203.809 C 252.396 202.494,251.648 202.719,250.983 204.253 C 250.609 205.118,250.169 205.825,250.005 205.825 C 249.842 205.825,249.709 206.012,249.709 206.241 C 249.709 206.469,249.160 207.454,248.490 208.428 C 247.219 210.275,244.272 215.802,244.272 216.338 C 244.272 216.508,244.644 216.765,245.100 216.909 C 245.555 217.054,245.756 217.284,245.546 217.421 C 245.337 217.558,245.071 217.932,244.957 218.252 C 244.802 218.686,244.655 218.596,244.382 217.899 C 243.984 216.886,241.942 220.172,241.942 221.824 C 241.942 222.209,241.767 222.524,241.553 222.524 C 241.340 222.524,241.165 222.874,241.165 223.301 C 241.165 223.728,241.329 224.078,241.529 224.078 C 241.730 224.078,241.867 224.427,241.835 224.854 C 241.803 225.282,241.620 225.631,241.429 225.631 C 241.238 225.631,241.179 225.378,241.298 225.068 C 241.442 224.692,241.327 224.577,240.951 224.722 C 240.642 224.840,240.388 225.268,240.388 225.673 C 240.388 226.077,240.214 226.408,240.000 226.408 C 239.786 226.408,239.612 226.942,239.612 227.596 C 239.612 228.249,239.757 228.694,239.935 228.584 C 240.113 228.474,240.259 228.638,240.259 228.949 C 240.259 229.260,240.113 229.515,239.935 229.515 C 239.757 229.515,239.612 229.340,239.612 229.126 C 239.612 228.913,239.437 228.738,239.223 228.738 C 238.714 228.738,238.726 230.118,239.245 231.191 C 239.615 231.956,239.601 231.973,239.109 231.365 C 238.432 230.529,238.058 230.861,238.058 232.298 C 238.058 232.903,237.863 233.398,237.625 233.398 C 237.374 233.398,237.268 233.799,237.373 234.350 C 237.473 234.873,237.381 235.266,237.169 235.224 C 236.601 235.109,234.157 242.723,233.426 246.886 C 232.280 253.414,232.175 254.944,232.353 262.524 C 232.571 271.825,233.446 278.501,234.616 279.786 C 234.800 279.989,234.951 280.540,234.951 281.009 C 234.951 281.827,236.941 286.008,237.696 286.777 C 237.895 286.980,238.058 287.460,238.058 287.845 C 238.058 288.229,238.221 288.544,238.420 288.544 C 238.618 288.544,238.837 288.937,238.905 289.417 C 238.984 289.971,239.279 290.271,239.709 290.237 C 240.470 290.177,240.639 290.726,239.931 290.961 C 239.671 291.048,239.605 291.325,239.776 291.603 C 239.943 291.872,240.323 291.998,240.622 291.883 C 240.921 291.769,241.165 291.844,241.165 292.051 C 241.165 292.258,240.990 292.427,240.777 292.427 C 240.563 292.427,240.388 292.621,240.388 292.857 C 240.388 293.094,240.642 293.190,240.951 293.071 C 241.323 292.929,241.442 293.042,241.303 293.404 C 241.187 293.706,241.458 294.467,241.905 295.095 C 242.353 295.723,242.718 296.364,242.718 296.519 C 242.718 296.675,243.033 297.085,243.416 297.430 C 243.800 297.776,244.532 298.670,245.043 299.417 C 245.832 300.573,247.386 302.266,252.653 307.708 C 253.098 308.168,255.277 310.204,257.496 312.233 C 259.714 314.262,262.339 316.665,263.329 317.573 C 266.121 320.133,267.192 319.961,270.546 316.410 C 272.008 314.862,274.165 312.672,275.340 311.543 C 281.658 305.471,283.171 303.940,284.158 302.617 C 285.377 300.985,287.320 299.051,289.603 297.198 C 292.836 294.575,297.000 290.050,297.227 288.915 C 297.570 287.199,297.254 286.681,293.745 283.204 C 290.462 279.952,289.949 279.619,289.551 280.485 C 289.428 280.752,289.425 280.578,289.544 280.097 C 289.781 279.143,289.356 278.955,288.621 279.689 C 288.298 280.013,288.155 280.023,288.155 279.722 C 288.155 279.483,288.374 279.210,288.641 279.114 C 288.944 279.006,288.689 278.599,287.961 278.030 C 283.481 274.530,278.835 268.409,278.835 266.006 C 278.835 265.398,278.660 264.792,278.447 264.660 C 278.233 264.528,278.058 263.130,278.058 261.553 C 278.058 259.977,278.233 258.579,278.447 258.447 C 278.660 258.315,278.835 257.266,278.835 256.117 C 278.835 254.967,279.010 253.918,279.223 253.786 C 279.437 253.654,279.612 252.955,279.612 252.233 C 279.612 251.511,279.786 250.812,280.000 250.680 C 280.214 250.548,280.388 249.926,280.388 249.297 C 280.388 248.669,280.563 248.155,280.777 248.155 C 280.990 248.155,281.165 247.729,281.165 247.207 C 281.165 246.686,281.340 246.151,281.553 246.019 C 281.767 245.887,281.942 245.353,281.942 244.831 C 281.942 244.310,282.117 243.883,282.330 243.883 C 282.544 243.883,282.718 243.619,282.718 243.296 C 282.718 242.972,282.873 242.404,283.061 242.034 C 284.103 239.987,284.353 239.217,284.149 238.687 C 283.995 238.284,284.101 238.166,284.486 238.314 C 284.867 238.460,285.049 238.266,285.049 237.711 C 285.049 237.261,285.245 236.893,285.485 236.893 C 285.769 236.893,285.837 236.451,285.680 235.631 C 285.506 234.722,285.547 234.532,285.826 234.951 C 286.150 235.439,286.253 235.391,286.453 234.660 C 286.585 234.180,286.847 233.786,287.036 233.786 C 287.224 233.786,287.379 233.517,287.379 233.188 C 287.379 232.858,287.728 232.214,288.155 231.755 C 288.583 231.297,288.932 230.692,288.932 230.412 C 288.932 230.132,289.072 229.903,289.244 229.903 C 289.416 229.903,290.049 228.985,290.652 227.864 C 291.255 226.743,292.315 224.951,293.008 223.883 C 295.862 219.484,297.087 217.440,297.087 217.080 C 297.087 216.870,297.230 216.699,297.403 216.699 C 297.577 216.699,297.959 216.087,298.252 215.340 C 298.546 214.592,298.928 213.981,299.102 213.981 C 299.275 213.981,299.418 213.762,299.418 213.495 C 299.418 213.228,299.811 212.552,300.292 211.994 C 301.756 210.290,303.077 208.519,303.689 207.438 C 304.010 206.872,304.578 206.127,304.951 205.781 C 305.325 205.435,305.631 204.987,305.631 204.785 C 305.631 204.583,305.937 204.080,306.311 203.665 C 307.669 202.160,308.186 200.773,307.555 200.326 C 307.079 199.989,307.088 199.958,307.613 200.123 C 308.311 200.344,309.662 199.000,309.312 198.433 C 309.188 198.232,309.313 198.153,309.591 198.257 C 310.134 198.461,311.185 196.620,310.843 196.066 C 310.731 195.885,310.867 195.815,311.145 195.910 C 311.449 196.015,313.273 193.841,315.728 190.449 C 317.971 187.349,319.985 184.604,320.204 184.349 C 320.422 184.093,321.511 182.485,322.624 180.777 C 323.736 179.068,324.824 177.459,325.042 177.201 C 325.259 176.943,325.437 176.625,325.437 176.495 C 325.437 176.365,326.211 175.308,327.157 174.147 C 328.102 172.986,329.363 171.032,329.958 169.804 C 330.553 168.577,331.177 167.515,331.345 167.443 C 331.513 167.372,331.650 166.979,331.650 166.570 C 331.650 166.160,331.825 165.825,332.039 165.825 C 332.252 165.825,332.427 165.486,332.427 165.071 C 332.427 164.657,332.602 164.210,332.816 164.078 C 333.029 163.946,333.204 163.411,333.204 162.890 C 333.204 162.368,333.379 161.942,333.592 161.942 C 334.153 161.942,334.071 160.493,333.495 160.238 C 333.228 160.119,333.359 160.061,333.786 160.108 C 334.445 160.181,334.557 159.976,334.520 158.756 C 334.495 157.894,334.650 157.349,334.909 157.397 C 335.146 157.440,335.340 157.039,335.340 156.505 C 335.340 155.971,335.558 155.394,335.825 155.223 C 336.383 154.866,336.486 152.388,335.957 152.060 C 335.549 151.808,335.614 151.335,336.280 149.709 C 336.542 149.068,336.651 148.019,336.522 147.379 C 336.393 146.738,336.281 145.911,336.274 145.542 C 336.267 145.172,336.098 144.769,335.898 144.645 C 335.698 144.521,335.546 144.037,335.561 143.569 C 335.588 142.749,335.601 142.746,335.922 143.495 C 336.174 144.081,336.263 143.825,336.283 142.450 C 336.298 141.448,336.136 140.520,335.922 140.388 C 335.709 140.256,335.534 139.645,335.534 139.029 C 335.534 138.414,335.359 137.802,335.146 137.670 C 334.932 137.538,334.757 136.998,334.757 136.470 C 334.757 135.942,334.514 135.416,334.218 135.303 C 333.921 135.189,333.755 134.800,333.850 134.439 C 333.944 134.078,333.663 133.397,333.224 132.927 C 332.786 132.456,332.427 131.891,332.427 131.671 C 332.427 130.372,325.221 123.535,321.942 121.722 C 321.194 121.309,320.524 120.840,320.453 120.680 C 320.382 120.519,319.999 120.388,319.602 120.388 C 319.205 120.388,318.773 120.214,318.641 120.000 C 318.509 119.786,317.974 119.612,317.453 119.612 C 316.931 119.612,316.505 119.437,316.505 119.223 C 316.505 119.010,316.078 118.835,315.557 118.835 C 315.036 118.835,314.501 118.660,314.369 118.447 C 314.237 118.233,313.300 118.058,312.288 118.058 C 311.275 118.058,310.266 117.877,310.044 117.656 C 309.500 117.112,291.273 117.116,290.728 117.660 C 290.509 117.879,289.589 118.058,288.683 118.058 C 287.777 118.058,286.928 118.233,286.796 118.447 C 286.664 118.660,285.790 118.835,284.854 118.835 C 283.918 118.835,283.045 119.010,282.913 119.223 C 282.781 119.437,281.994 119.612,281.165 119.612 C 280.336 119.612,279.549 119.786,279.417 120.000 C 279.285 120.214,278.786 120.388,278.307 120.388 C 277.829 120.388,277.271 120.533,277.068 120.709 C 276.865 120.886,275.913 121.272,274.951 121.567 C 271.803 122.534,267.582 124.612,267.711 125.133 C 267.778 125.407,267.761 125.500,267.671 125.340 C 267.334 124.738,266.370 125.081,266.032 125.922 C 265.838 126.403,265.669 126.578,265.656 126.311 C 265.642 126.044,265.369 125.825,265.049 125.825 C 264.426 125.825,264.236 124.460,264.810 124.105 C 264.999 123.989,265.248 123.410,265.364 122.820 C 265.480 122.230,265.867 120.524,266.223 119.029 C 267.722 112.743,268.342 103.790,267.595 99.223 C 266.787 94.280,265.934 90.700,265.195 89.150 C 264.794 88.309,264.460 87.348,264.454 87.014 C 264.440 86.349,263.570 85.049,263.138 85.049 C 262.989 85.049,262.991 85.250,263.144 85.497 C 263.303 85.754,263.252 85.841,263.025 85.700 C 262.807 85.566,262.713 85.014,262.816 84.475 C 263.006 83.480,262.367 83.092,262.000 83.981 C 261.890 84.248,261.898 83.898,262.017 83.204 C 262.154 82.400,262.075 81.942,261.796 81.942 C 261.556 81.942,261.359 81.713,261.359 81.432 C 261.359 81.152,261.010 80.548,260.583 80.089 C 260.155 79.631,259.806 79.116,259.806 78.944 C 259.806 78.108,253.556 71.542,251.748 70.478 C 251.053 70.070,250.485 69.598,250.485 69.431 C 250.485 69.263,250.256 69.126,249.976 69.126 C 249.696 69.126,249.128 68.820,248.714 68.447 C 247.651 67.487,243.141 65.243,242.276 65.243 C 241.878 65.243,241.553 65.068,241.553 64.854 C 241.553 64.313,240.107 64.367,239.765 64.921 C 239.579 65.222,239.379 65.091,239.172 64.532 C 238.934 63.889,238.541 63.689,237.511 63.689 C 236.769 63.689,236.054 63.515,235.922 63.301 C 235.790 63.087,234.906 62.913,233.958 62.913 C 233.009 62.913,232.233 62.758,232.233 62.570 C 232.233 62.038,230.796 61.705,226.990 61.354 C 225.068 61.177,222.534 60.943,221.359 60.834 C 220.184 60.725,218.437 60.786,217.476 60.969 M218.741 62.136 C 218.925 62.136,218.986 61.991,218.876 61.815 C 218.767 61.638,219.325 61.545,220.116 61.609 C 224.456 61.957,226.050 62.598,223.912 63.134 C 222.835 63.405,221.359 63.037,221.359 62.498 C 221.359 62.299,220.912 62.136,220.365 62.136 C 219.819 62.136,219.470 62.295,219.590 62.490 C 219.935 63.047,216.864 63.417,215.951 62.928 C 215.155 62.502,214.873 62.093,215.437 62.182 C 216.655 62.374,217.878 62.079,217.636 61.650 C 217.417 61.262,217.466 61.262,217.885 61.650 C 218.172 61.917,218.558 62.136,218.741 62.136 M181.431 70.305 C 180.937 70.508,180.642 70.849,180.775 71.065 C 180.908 71.280,180.852 71.456,180.651 71.456 C 179.538 71.456,179.994 70.056,181.125 69.999 C 182.239 69.942,182.262 69.966,181.431 70.305 M70.680 99.477 C 70.680 100.002,69.902 100.246,69.071 99.983 C 68.454 99.787,68.375 99.642,68.759 99.405 C 69.369 99.027,70.680 99.077,70.680 99.477 M64.712 100.393 C 64.530 100.867,64.036 100.986,62.625 100.895 C 60.360 100.750,60.343 100.044,62.602 99.883 C 63.506 99.819,64.325 99.688,64.421 99.592 C 64.758 99.255,64.948 99.779,64.712 100.393 M266.870 103.406 C 266.631 103.694,266.533 104.986,266.634 106.513 C 266.742 108.135,266.658 109.126,266.413 109.126 C 266.180 109.126,266.019 107.861,266.019 106.019 C 266.019 103.413,266.121 102.913,266.649 102.913 C 267.115 102.913,267.173 103.042,266.870 103.406 M214.175 105.631 C 214.307 105.845,214.219 106.019,213.981 106.019 C 213.742 106.019,213.639 106.169,213.752 106.352 C 213.865 106.534,213.482 106.587,212.901 106.468 C 212.165 106.318,212.051 106.208,212.524 106.107 C 212.898 106.028,213.204 105.801,213.204 105.603 C 213.204 105.123,213.873 105.142,214.175 105.631 M223.118 109.972 C 223.339 111.276,223.260 111.691,222.717 112.088 C 222.247 112.432,222.095 112.941,222.216 113.766 C 222.372 114.831,222.159 115.122,221.302 115.011 C 221.164 114.993,221.140 115.322,221.250 115.741 C 221.398 116.305,221.260 116.497,220.725 116.474 C 220.326 116.457,220.209 116.359,220.464 116.255 C 220.719 116.151,220.834 115.824,220.720 115.527 C 220.606 115.230,220.772 114.619,221.087 114.168 C 221.403 113.717,221.579 113.030,221.477 112.642 C 221.375 112.253,221.546 111.434,221.857 110.822 C 222.168 110.210,222.373 109.403,222.313 109.029 C 222.254 108.655,222.349 108.350,222.524 108.350 C 222.700 108.350,222.968 109.080,223.118 109.972 M220.583 118.669 C 220.583 118.745,220.189 119.017,219.709 119.273 C 218.947 119.679,218.897 119.664,219.317 119.154 C 219.582 118.832,219.675 118.445,219.523 118.293 C 219.371 118.141,219.547 118.133,219.915 118.273 C 220.282 118.414,220.583 118.592,220.583 118.669 M217.735 121.036 C 217.592 121.178,217.476 121.702,217.476 122.201 C 217.476 122.699,217.301 123.107,217.087 123.107 C 216.874 123.107,216.699 123.456,216.699 123.883 C 216.699 125.070,217.863 124.667,218.101 123.398 C 218.131 123.238,218.192 123.063,218.236 123.010 C 218.911 122.195,218.438 120.332,217.735 121.036 M274.369 123.107 C 275.118 123.429,275.115 123.442,274.295 123.468 C 273.827 123.483,273.336 123.320,273.204 123.107 C 272.920 122.647,273.300 122.647,274.369 123.107 M120.000 125.753 C 120.000 125.926,119.481 126.566,118.846 127.173 C 117.488 128.475,116.696 127.683,117.923 126.250 C 118.602 125.457,120.000 125.122,120.000 125.753 M216.408 128.413 C 216.141 128.520,215.922 128.866,215.922 129.181 C 215.922 129.497,215.755 129.651,215.551 129.525 C 214.989 129.177,215.528 128.151,216.255 128.186 C 216.658 128.205,216.714 128.289,216.408 128.413 M213.248 135.454 C 213.010 135.534,212.816 135.836,212.816 136.126 C 212.816 136.416,212.670 136.743,212.492 136.853 C 212.002 137.156,212.092 135.770,212.583 135.451 C 212.818 135.299,213.032 134.993,213.058 134.771 C 213.164 133.893,213.303 133.821,213.487 134.548 C 213.594 134.967,213.486 135.375,213.248 135.454 M117.122 135.823 C 116.704 136.241,116.482 135.656,116.776 134.910 C 117.051 134.210,117.071 134.209,117.207 134.885 C 117.286 135.275,117.247 135.698,117.122 135.823 M60.093 142.895 C 60.391 143.372,60.426 143.740,60.186 143.888 C 59.977 144.018,59.792 143.895,59.775 143.615 C 59.752 143.224,59.699 143.219,59.549 143.592 C 59.441 143.859,59.182 144.078,58.974 144.078 C 58.765 144.078,58.703 143.903,58.835 143.689 C 58.967 143.476,58.890 143.301,58.664 143.301 C 58.437 143.301,58.252 143.039,58.252 142.718 C 58.252 141.879,59.535 142.001,60.093 142.895 M68.486 142.431 C 68.587 142.594,68.422 143.064,68.121 143.477 C 67.729 144.012,67.571 144.066,67.567 143.666 C 67.562 143.200,67.505 143.195,67.223 143.640 C 67.038 143.933,66.658 144.096,66.380 144.004 C 66.016 143.882,66.113 143.596,66.723 142.985 C 67.605 142.103,68.173 141.925,68.486 142.431 M209.457 143.117 C 209.337 143.429,209.064 143.577,208.850 143.444 C 208.614 143.299,208.555 143.500,208.699 143.954 C 208.865 144.479,208.586 145.041,207.769 145.823 C 207.127 146.438,206.602 146.753,206.602 146.522 C 206.602 146.291,206.861 146.003,207.178 145.881 C 207.506 145.756,207.655 145.403,207.525 145.063 C 207.376 144.675,207.519 144.466,207.933 144.466 C 208.463 144.466,208.496 144.326,208.130 143.642 C 207.885 143.184,207.861 142.925,208.076 143.058 C 208.288 143.189,208.567 143.024,208.694 142.692 C 208.822 142.359,209.095 142.191,209.301 142.318 C 209.506 142.445,209.577 142.805,209.457 143.117 M200.235 159.417 C 199.789 160.842,199.271 161.252,199.364 160.107 C 199.405 159.590,200.338 158.058,200.611 158.058 C 200.638 158.058,200.469 158.670,200.235 159.417 M198.316 162.887 C 197.936 163.877,197.373 163.580,197.580 162.497 C 197.708 161.830,197.900 161.628,198.160 161.888 C 198.374 162.103,198.445 162.552,198.316 162.887 M276.358 169.498 C 276.491 169.845,275.812 170.827,274.598 172.041 C 273.511 173.128,272.621 174.104,272.621 174.209 C 272.621 174.314,272.010 175.308,271.262 176.418 C 270.515 177.528,269.903 178.286,269.903 178.103 C 269.903 177.919,269.597 178.006,269.223 178.295 C 268.577 178.795,268.578 178.782,269.224 178.020 C 269.598 177.579,269.773 177.074,269.612 176.897 C 269.452 176.720,269.635 176.688,270.020 176.827 C 270.428 176.973,270.623 176.922,270.488 176.704 C 270.361 176.498,270.538 175.844,270.881 175.252 C 271.225 174.659,271.413 174.481,271.299 174.854 C 270.973 175.927,271.342 175.648,272.004 174.322 C 272.337 173.655,272.497 172.929,272.361 172.708 C 272.218 172.477,272.302 172.424,272.561 172.584 C 272.808 172.737,273.203 172.742,273.440 172.596 C 273.740 172.410,273.712 172.233,273.347 172.007 C 272.946 171.759,273.134 171.365,274.158 170.308 C 275.623 168.798,276.031 168.647,276.358 169.498 M271.456 172.816 C 270.939 173.150,270.939 173.197,271.456 173.237 C 271.777 173.261,271.602 173.410,271.068 173.568 C 270.534 173.725,270.022 173.793,269.931 173.719 C 269.706 173.535,271.166 172.453,271.650 172.445 C 271.864 172.442,271.777 172.608,271.456 172.816 M265.809 176.672 C 266.198 177.302,265.352 177.493,264.851 176.889 C 264.461 176.419,264.484 176.311,264.978 176.311 C 265.312 176.311,265.686 176.473,265.809 176.672 M186.891 181.165 C 186.789 181.699,186.541 182.136,186.340 182.136 C 186.138 182.136,186.044 182.005,186.131 181.845 C 186.217 181.684,186.397 181.248,186.530 180.874 C 186.886 179.872,187.105 180.048,186.891 181.165 M182.136 188.350 C 181.907 188.777,181.508 189.124,181.248 189.120 C 180.952 189.117,180.993 188.974,181.359 188.738 C 181.680 188.531,181.800 188.359,181.628 188.355 C 181.178 188.347,181.717 187.573,182.173 187.573 C 182.407 187.573,182.393 187.869,182.136 188.350 M259.715 193.399 C 259.234 194.170,258.466 194.310,258.709 193.583 C 258.778 193.374,258.966 193.248,259.126 193.301 C 259.286 193.354,259.417 193.223,259.417 193.010 C 259.417 192.796,259.594 192.621,259.809 192.621 C 260.041 192.621,260.003 192.938,259.715 193.399 M240.629 197.485 C 240.095 198.019,240.000 198.027,240.000 197.536 C 240.000 197.218,240.218 196.880,240.485 196.785 C 241.253 196.511,241.312 196.802,240.629 197.485 M174.483 199.610 C 174.100 199.984,173.620 200.192,173.417 200.073 C 173.208 199.951,173.250 199.790,173.514 199.702 C 173.771 199.617,173.981 199.305,173.981 199.009 C 173.981 198.683,174.217 198.562,174.580 198.701 C 175.105 198.902,175.093 199.017,174.483 199.610 M250.485 207.573 C 250.485 207.893,250.311 208.155,250.097 208.155 C 249.883 208.155,249.709 207.893,249.709 207.573 C 249.709 207.252,249.883 206.990,250.097 206.990 C 250.311 206.990,250.485 207.252,250.485 207.573 M164.170 210.643 C 163.620 211.193,163.107 211.100,163.107 210.449 C 163.107 210.157,164.333 209.755,164.609 209.956 C 164.688 210.013,164.491 210.322,164.170 210.643 M248.932 210.657 C 248.932 210.964,248.757 211.324,248.544 211.456 C 248.330 211.588,248.155 212.070,248.155 212.528 C 248.155 213.165,248.049 213.253,247.698 212.902 C 247.348 212.552,247.382 212.285,247.842 211.757 C 248.172 211.378,248.363 210.850,248.266 210.583 C 248.170 210.316,248.280 210.097,248.511 210.097 C 248.743 210.097,248.932 210.349,248.932 210.657 M151.985 225.049 C 151.862 225.369,151.606 225.631,151.415 225.631 C 151.224 225.631,151.068 225.893,151.068 226.214 C 151.068 226.534,150.883 226.796,150.657 226.796 C 150.209 226.796,150.466 226.211,151.381 225.146 C 152.097 224.313,152.279 224.283,151.985 225.049 M289.472 228.125 C 289.258 228.683,288.155 229.303,288.155 228.866 C 288.155 228.667,289.332 227.624,289.599 227.585 C 289.646 227.578,289.589 227.821,289.472 228.125 M237.122 239.387 C 237.178 239.915,236.982 240.420,236.676 240.538 C 236.343 240.665,236.225 241.019,236.374 241.442 C 236.570 241.998,236.518 242.043,236.112 241.667 C 235.696 241.282,235.703 241.081,236.148 240.545 C 236.446 240.186,236.631 239.436,236.559 238.878 C 236.488 238.320,236.563 237.995,236.725 238.155 C 236.888 238.315,237.067 238.869,237.122 239.387 M235.728 244.955 C 235.728 245.331,235.398 245.845,234.994 246.097 C 234.357 246.495,234.286 246.456,234.457 245.802 C 234.565 245.388,234.818 245.049,235.020 245.049 C 235.221 245.049,235.278 244.874,235.146 244.660 C 235.014 244.447,235.091 244.272,235.317 244.272 C 235.543 244.272,235.728 244.579,235.728 244.955 M145.913 250.576 C 145.826 251.274,145.754 250.796,145.751 249.515 C 145.749 248.233,145.820 247.662,145.909 248.245 C 145.997 248.829,145.999 249.878,145.913 250.576 " stroke="none" fill="#fcfcfc" fill-rule="evenodd"></path><path id="path1" d="M218.120 62.236 C 218.396 62.683,217.046 63.083,216.757 62.640 C 216.536 62.300,215.146 62.078,215.146 62.381 C 215.146 62.445,215.508 62.691,215.951 62.928 C 216.864 63.417,219.935 63.047,219.590 62.490 C 219.224 61.896,220.986 62.096,221.609 62.718 C 222.264 63.373,223.595 63.471,224.455 62.928 C 224.769 62.729,224.876 62.426,224.693 62.254 C 224.510 62.082,224.282 62.160,224.186 62.427 C 224.091 62.694,223.668 62.913,223.246 62.913 C 222.824 62.913,222.579 62.750,222.701 62.552 C 222.824 62.354,222.584 62.084,222.169 61.952 C 221.164 61.633,217.890 61.862,218.120 62.236 M180.089 70.709 C 180.318 71.585,180.841 71.711,180.841 70.890 C 180.841 70.579,180.628 70.243,180.368 70.143 C 180.061 70.025,179.963 70.224,180.089 70.709 M68.784 99.381 C 68.362 99.648,68.423 99.777,69.071 99.983 C 69.976 100.270,70.680 99.991,70.680 99.347 C 70.680 99.103,70.411 99.152,70.023 99.467 C 69.576 99.829,69.459 99.844,69.657 99.515 C 69.994 98.954,69.562 98.888,68.784 99.381 M64.419 99.594 C 64.322 99.691,63.605 99.813,62.826 99.866 C 62.030 99.919,61.511 100.126,61.642 100.338 C 61.778 100.558,61.597 100.608,61.209 100.459 C 60.813 100.307,60.639 100.359,60.779 100.587 C 60.910 100.798,61.366 100.971,61.793 100.971 C 62.221 100.971,62.462 100.796,62.330 100.583 C 62.198 100.369,62.373 100.194,62.718 100.194 C 63.064 100.194,63.239 100.369,63.107 100.583 C 62.975 100.796,63.232 100.971,63.679 100.971 C 64.125 100.971,64.594 100.701,64.720 100.372 C 64.950 99.772,64.752 99.261,64.419 99.594 M266.019 106.019 C 266.019 107.861,266.180 109.126,266.413 109.126 C 266.658 109.126,266.742 108.135,266.634 106.513 C 266.533 104.986,266.631 103.694,266.870 103.406 C 267.173 103.042,267.115 102.913,266.649 102.913 C 266.121 102.913,266.019 103.413,266.019 106.019 M213.204 105.603 C 213.204 105.801,212.898 106.028,212.524 106.107 C 212.051 106.208,212.165 106.318,212.901 106.468 C 213.482 106.587,213.865 106.534,213.752 106.352 C 213.639 106.169,213.742 106.019,213.981 106.019 C 214.219 106.019,214.307 105.845,214.175 105.631 C 213.873 105.142,213.204 105.123,213.204 105.603 M215.363 105.844 C 214.628 106.393,214.632 106.408,215.483 106.408 C 215.963 106.408,216.274 106.274,216.173 106.111 C 215.918 105.699,221.426 105.772,222.099 106.189 C 222.502 106.439,222.563 106.385,222.333 105.982 C 222.081 105.541,222.122 105.530,222.545 105.922 C 223.238 106.566,223.689 106.537,223.689 105.849 C 223.689 105.041,216.442 105.036,215.363 105.844 M210.097 106.564 C 210.097 107.223,210.731 107.732,211.000 107.288 C 211.100 107.124,210.937 106.765,210.639 106.490 C 210.194 106.078,210.097 106.091,210.097 106.564 M222.313 109.029 C 222.373 109.403,222.168 110.210,221.857 110.822 C 221.546 111.434,221.375 112.253,221.477 112.642 C 221.579 113.030,221.409 113.709,221.100 114.150 C 220.790 114.592,220.657 115.147,220.804 115.384 C 220.950 115.621,220.830 115.968,220.535 116.154 C 220.112 116.422,220.142 116.494,220.680 116.499 C 221.053 116.502,221.359 116.237,221.359 115.910 C 221.359 115.583,221.590 115.227,221.872 115.119 C 222.199 114.993,222.323 114.496,222.214 113.752 C 222.095 112.942,222.250 112.429,222.717 112.088 C 223.418 111.575,223.252 108.350,222.524 108.350 C 222.349 108.350,222.254 108.655,222.313 109.029 M219.126 120.604 C 218.859 120.895,218.589 121.472,218.526 121.887 C 218.462 122.303,218.179 122.922,217.896 123.263 C 217.612 123.604,217.524 123.883,217.700 123.883 C 217.876 123.883,217.810 124.093,217.553 124.350 C 216.752 125.151,217.045 125.595,217.878 124.842 C 218.312 124.449,218.580 123.897,218.472 123.617 C 218.365 123.336,218.446 123.107,218.653 123.107 C 218.860 123.107,219.029 122.772,219.029 122.362 C 219.029 121.953,219.224 121.553,219.462 121.474 C 219.700 121.395,219.831 121.048,219.753 120.703 C 219.635 120.178,219.533 120.162,219.126 120.604 M117.923 126.250 C 116.696 127.683,117.488 128.475,118.846 127.173 C 119.481 126.566,120.000 125.926,120.000 125.753 C 120.000 125.122,118.602 125.457,117.923 126.250 M215.563 128.703 C 215.252 129.078,215.237 129.331,215.515 129.503 C 215.739 129.641,215.922 129.497,215.922 129.181 C 215.922 128.866,216.141 128.520,216.408 128.413 C 216.713 128.289,216.730 128.205,216.455 128.186 C 216.214 128.169,215.813 128.402,215.563 128.703 M213.200 134.078 C 213.149 134.238,213.082 134.500,213.052 134.660 C 213.022 134.820,212.831 135.214,212.626 135.534 C 212.125 136.320,212.023 137.143,212.461 136.872 C 212.656 136.752,212.816 136.416,212.816 136.126 C 212.816 135.836,213.010 135.534,213.248 135.454 C 213.486 135.375,213.594 134.967,213.487 134.548 C 213.381 134.129,213.252 133.917,213.200 134.078 M116.776 134.910 C 116.617 135.314,116.578 135.737,116.690 135.848 C 117.044 136.203,117.356 135.622,117.207 134.885 C 117.071 134.209,117.051 134.210,116.776 134.910 M58.252 142.718 C 58.252 143.039,58.437 143.301,58.664 143.301 C 58.890 143.301,58.967 143.476,58.835 143.689 C 58.703 143.903,58.765 144.078,58.974 144.078 C 59.182 144.078,59.441 143.859,59.549 143.592 C 59.699 143.219,59.752 143.224,59.775 143.615 C 59.792 143.895,59.977 144.018,60.186 143.888 C 60.752 143.539,59.751 142.136,58.936 142.136 C 58.560 142.136,58.252 142.398,58.252 142.718 M66.723 142.985 C 66.113 143.596,66.016 143.882,66.380 144.004 C 66.658 144.096,67.038 143.933,67.223 143.640 C 67.505 143.195,67.562 143.200,67.567 143.666 C 67.571 144.066,67.729 144.012,68.121 143.477 C 69.171 142.040,68.059 141.650,66.723 142.985 M208.545 142.910 C 208.311 143.347,208.214 143.858,208.329 144.045 C 208.445 144.232,208.253 144.494,207.903 144.629 C 207.554 144.763,207.380 144.985,207.518 145.123 C 207.656 145.261,207.465 145.738,207.094 146.182 C 206.723 146.627,206.986 146.476,207.678 145.847 C 208.576 145.032,208.869 144.489,208.699 143.954 C 208.555 143.500,208.614 143.299,208.850 143.444 C 209.064 143.577,209.337 143.429,209.457 143.117 C 209.804 142.211,209.015 142.032,208.545 142.910 M335.561 143.569 C 335.546 144.037,335.709 144.528,335.922 144.660 C 336.382 144.944,336.382 144.564,335.922 143.495 C 335.601 142.746,335.588 142.749,335.561 143.569 M200.229 158.391 C 199.735 159.190,199.267 160.777,199.526 160.777 C 199.682 160.777,200.001 160.165,200.235 159.417 C 200.649 158.095,200.647 157.714,200.229 158.391 M197.688 162.685 C 197.387 163.247,197.381 163.495,197.668 163.495 C 198.139 163.495,198.652 162.406,198.332 162.086 C 198.216 161.970,197.926 162.240,197.688 162.685 M274.158 170.308 C 273.134 171.365,272.946 171.759,273.347 172.007 C 273.712 172.233,273.740 172.410,273.440 172.596 C 273.203 172.742,272.808 172.737,272.561 172.584 C 272.299 172.422,272.218 172.477,272.365 172.715 C 272.694 173.247,271.670 175.221,271.259 174.848 C 271.085 174.692,271.058 174.763,271.198 175.008 C 271.337 175.252,271.173 175.560,270.831 175.691 C 270.489 175.822,270.307 176.180,270.425 176.488 C 270.578 176.885,270.448 176.979,269.980 176.812 C 269.617 176.682,269.452 176.720,269.612 176.897 C 269.773 177.074,269.598 177.579,269.224 178.020 C 268.578 178.782,268.577 178.795,269.223 178.295 C 269.597 178.006,269.903 177.919,269.903 178.103 C 269.903 178.286,270.515 177.528,271.262 176.418 C 272.010 175.308,272.621 174.314,272.621 174.209 C 272.621 174.104,273.511 173.128,274.598 172.041 C 275.812 170.827,276.491 169.845,276.358 169.498 C 276.031 168.647,275.623 168.798,274.158 170.308 M276.117 169.809 C 276.117 170.336,274.608 171.436,274.303 171.132 C 274.076 170.905,275.398 169.320,275.814 169.320 C 275.981 169.320,276.117 169.540,276.117 169.809 M270.583 172.968 C 269.683 173.650,269.722 173.955,270.675 173.706 C 271.100 173.595,271.361 173.364,271.255 173.193 C 271.150 173.022,271.283 172.793,271.551 172.685 C 271.819 172.577,271.864 172.480,271.650 172.470 C 271.437 172.460,270.956 172.684,270.583 172.968 M264.660 176.699 C 264.792 176.913,265.162 177.087,265.483 177.087 C 265.803 177.087,265.957 176.913,265.825 176.699 C 265.693 176.485,265.323 176.311,265.003 176.311 C 264.682 176.311,264.528 176.485,264.660 176.699 M186.530 180.874 C 186.397 181.248,186.217 181.684,186.131 181.845 C 186.044 182.005,186.138 182.136,186.340 182.136 C 186.541 182.136,186.789 181.699,186.891 181.165 C 187.105 180.048,186.886 179.872,186.530 180.874 M262.487 187.982 C 262.146 188.332,261.292 189.455,260.588 190.477 L 259.309 192.336 260.528 191.435 C 261.199 190.939,261.748 190.337,261.748 190.097 C 261.748 189.857,262.110 189.272,262.552 188.797 C 263.481 187.800,263.419 187.026,262.487 187.982 M181.553 187.961 C 181.421 188.175,181.455 188.352,181.628 188.355 C 181.800 188.359,181.680 188.531,181.359 188.738 C 180.993 188.974,180.952 189.117,181.248 189.120 C 181.508 189.124,181.907 188.777,182.136 188.350 C 182.559 187.559,182.023 187.201,181.553 187.961 M259.417 193.010 C 259.417 193.223,259.286 193.354,259.126 193.301 C 258.966 193.248,258.778 193.374,258.709 193.583 C 258.466 194.310,259.234 194.170,259.715 193.399 C 260.003 192.938,260.041 192.621,259.809 192.621 C 259.594 192.621,259.417 192.796,259.417 193.010 M173.981 199.009 C 173.981 199.305,173.771 199.617,173.514 199.702 C 173.250 199.790,173.208 199.951,173.417 200.073 C 173.620 200.192,174.100 199.984,174.483 199.610 C 175.093 199.017,175.105 198.902,174.580 198.701 C 174.217 198.562,173.981 198.683,173.981 199.009 M163.775 210.150 C 163.399 210.361,163.193 210.699,163.318 210.901 C 163.446 211.108,163.808 211.005,164.149 210.664 C 164.896 209.917,164.692 209.637,163.775 210.150 M224.928 210.889 C 224.460 211.324,224.078 211.769,224.078 211.878 C 224.078 212.191,225.994 210.712,226.007 210.388 C 226.026 209.946,225.854 210.026,224.928 210.889 M248.398 210.407 C 248.239 210.664,248.234 210.874,248.387 210.874 C 248.539 210.874,248.344 211.227,247.953 211.660 C 247.408 212.262,247.348 212.552,247.698 212.902 C 248.049 213.253,248.155 213.178,248.155 212.583 C 248.155 212.155,248.350 211.611,248.587 211.374 C 248.825 211.136,248.944 210.717,248.853 210.441 C 248.725 210.060,248.618 210.052,248.398 210.407 M244.445 217.510 C 244.302 217.742,244.379 218.126,244.616 218.364 C 244.934 218.681,245.049 218.629,245.049 218.168 C 245.049 217.823,245.267 217.452,245.534 217.345 C 245.833 217.224,245.767 217.137,245.363 217.118 C 245.002 217.101,244.589 217.277,244.445 217.510 M236.559 238.878 C 236.631 239.436,236.446 240.186,236.148 240.545 C 235.703 241.081,235.696 241.282,236.112 241.667 C 236.518 242.043,236.570 241.998,236.374 241.442 C 236.225 241.019,236.343 240.665,236.676 240.538 C 237.233 240.324,237.267 238.687,236.725 238.155 C 236.563 237.995,236.488 238.320,236.559 238.878 M235.146 244.660 C 235.278 244.874,235.221 245.049,235.020 245.049 C 234.818 245.049,234.565 245.388,234.457 245.802 C 234.286 246.456,234.357 246.495,234.994 246.097 C 235.773 245.610,236.010 244.272,235.317 244.272 C 235.091 244.272,235.014 244.447,235.146 244.660 M145.751 249.515 C 145.754 250.796,145.826 251.274,145.913 250.576 C 145.999 249.878,145.997 248.829,145.909 248.245 C 145.820 247.662,145.749 248.233,145.751 249.515 " stroke="none" fill="#f4f4f4" fill-rule="evenodd"></path><path id="path2" d="M216.699 62.607 C 216.699 63.036,217.771 62.989,218.044 62.548 C 218.168 62.347,217.916 62.210,217.484 62.242 C 217.052 62.275,216.699 62.439,216.699 62.607 M222.678 62.589 C 222.568 62.767,222.838 62.913,223.278 62.913 C 223.718 62.913,224.078 62.767,224.078 62.589 C 224.078 62.411,223.808 62.265,223.478 62.265 C 223.148 62.265,222.788 62.411,222.678 62.589 M274.816 170.134 C 274.433 170.581,274.202 171.030,274.303 171.132 C 274.608 171.436,276.117 170.336,276.117 169.809 C 276.117 169.086,275.603 169.214,274.816 170.134 " stroke="none" fill="#ececec" fill-rule="evenodd"></path><path id="path3" d="" stroke="none" fill="#f8fc100" fill-rule="evenodd"></path><path id="path4" d="" stroke="none" fill="#f8fc100" fill-rule="evenodd"></path></g></svg>